<svg width="287" height="287" viewBox="0 0 287 287" fill="none" xmlns="http://www.w3.org/2000/svg">
<g clip-path="url(#clip0_34_2918)">
<rect width="286.979" height="286.979" rx="23.5307" fill="#6552D0"/>
<path d="M90.2321 205.768C106.161 235.68 196.38 235.185 207.67 190.658C212.712 170.774 210.041 155.853 198.416 138.952C170.418 98.2455 100.49 133.112 89.9436 203.971C89.8522 204.585 89.9405 205.22 90.2321 205.768Z" fill="#D9EE61" stroke="#6552D0" stroke-width="3.16177"/>
<path d="M253.451 109.803C245.264 124.253 226.699 139.248 211.564 126.911C200.705 117.516 187.386 94.8967 196.605 83.308C196.834 83.0197 197.101 82.7648 197.384 82.529C201.206 79.3458 215.167 67.3378 235.007 65.5524C240.126 65.0918 242.725 71.3206 239.718 75.488C234.717 82.4186 228.541 91.6162 223.733 99.7061C222.039 102.555 223.084 106.07 226.342 106.672C231.551 107.635 238.929 107.571 245.287 105.133C250.769 103.031 256.344 104.695 253.451 109.803Z" fill="#D9EE61" stroke="#D9EE61" stroke-width="3.16177"/>
<path d="M138.116 82.0898C96.7585 87.1145 67.0579 125.134 72.1849 167.33C77.3119 209.525 115.253 239.327 156.611 234.302C197.968 229.277 227.668 191.258 222.541 149.062C217.414 106.867 179.473 77.0653 138.116 82.0898Z" stroke="#D9EE61" stroke-width="34.777"/>
<path d="M28.8794 -19.8228L52.8618 158.03C54.9295 173.364 75.5187 176.904 82.5888 163.141L82.8745 162.584C84.3559 159.701 84.9148 156.431 84.4753 153.219L55.9875 -55.0081C54.7189 -64.2808 45.7163 -70.4273 36.6182 -68.2324L-21.5238 -54.2057C-29.0702 -52.3851 -33.7919 -44.8833 -32.1696 -37.2918C-30.4466 -29.2293 -22.2891 -24.283 -14.3436 -26.483L8.99505 -32.945C18.2304 -35.5021 27.5988 -29.3197 28.8794 -19.8228Z" fill="#D9EE61"/>
</g>
<defs>
<clipPath id="clip0_34_2918">
<rect width="286.979" height="286.979" rx="23.5307" fill="white"/>
</clipPath>
</defs>
</svg>
