<svg width="973" height="1114" viewBox="0 0 973 1114" fill="none" xmlns="http://www.w3.org/2000/svg">
<path d="M505.981 238.082C523.336 282.849 503.677 361.006 503.677 361.006L500.073 366.726C500.073 366.726 419.48 343.21 366.368 341.434C287.73 338.804 241.348 410.702 168.708 380.466C112.251 356.966 59.8099 324.725 64.3244 263.739C69.8186 189.517 164.302 197.286 237.604 184.407C342.875 165.911 467.348 138.425 505.981 238.082Z" stroke="black" stroke-width="15.6788"/>
<path d="M563.59 433.666L548.431 503.912C546.293 513.817 541.022 522.77 533.397 529.445C523.677 537.954 510.891 542.103 498.026 540.922L475.638 538.867C465.543 537.941 455.649 535.478 446.297 531.563L375.833 502.069C362.206 496.365 351.053 486 344.367 472.828C333.808 452.027 335.769 427.067 349.447 408.17L383.05 361.741C398.347 340.607 424.351 330.037 450.055 334.507C455.951 335.533 461.688 337.329 467.116 339.851L531.874 369.928C541.314 374.312 549.373 381.197 555.179 389.835C563.822 402.695 566.859 418.52 563.59 433.666Z" fill="#0E0E0E"/>
<circle cx="307.057" cy="743.157" r="284.47" transform="rotate(25.0866 307.057 743.157)" stroke="#D9EE61" stroke-width="65.3285"/>
<path d="M407.927 749.74C418.359 841.506 289.294 1089.61 166.92 984.67C166.711 984.49 166.484 984.321 166.25 984.176C82.186 931.916 -21.696 729.295 39.8913 660.976C40.0941 660.751 40.2812 660.575 40.5211 660.389C63.7282 642.472 180.438 542.905 339.478 563.773C343.668 564.323 345.475 569.431 342.663 572.585C309.223 610.097 230.029 717.024 184.208 794.157C182.817 796.5 183.478 799.484 185.877 800.776C224.745 821.721 355.139 831.498 399.101 748.957C401.371 744.697 407.381 744.944 407.927 749.74Z" fill="#D9EE61" stroke="#D9EE61" stroke-width="2.60003"/>
</svg>
