<svg width="1570" height="1576" viewBox="0 0 1570 1576" fill="none" xmlns="http://www.w3.org/2000/svg">
<path d="M266.356 361.552C268.539 427.419 335.429 515.523 335.429 515.523L343.057 520.805C343.057 520.805 432.162 447.735 498.267 416.905C596.144 371.259 693.407 437.076 768.853 359.801C827.49 299.741 876.352 230.807 837.827 156.232C790.94 65.4725 675.821 126.136 576.334 149.328C433.458 182.635 261.498 214.926 266.356 361.552Z" stroke="black" stroke-width="15.6788"/>
<path d="M298.879 639.519L355.829 720.056C363.86 731.413 375.335 739.88 388.554 744.204C405.408 749.717 423.785 748.074 439.393 739.658L466.556 725.013C478.804 718.41 489.971 709.974 499.672 699.999L572.769 624.83C586.905 610.294 595.409 591.204 596.761 570.974C598.897 539.025 582.987 508.566 555.546 492.066L488.127 451.53C457.437 433.077 418.914 433.728 388.865 453.207C381.971 457.676 375.695 463.032 370.198 469.137L304.619 541.969C295.06 552.586 288.589 565.616 285.908 579.649C281.917 600.539 286.6 622.154 298.879 639.519Z" fill="#0E0E0E"/>
<circle cx="435.295" cy="435.295" r="435.295" transform="matrix(-0.666872 0.745172 0.745172 0.666872 755.301 277.567)" fill="#D9EE61"/>
<path d="M404.698 1203.96L502.107 1048.59C504.093 1045.42 508.334 1044.57 511.383 1046.74L653.016 1147.21C657.351 1150.29 663.344 1147.15 663.285 1141.84L660.483 886.582C660.417 880.587 667.807 877.702 671.821 882.155L856.222 1086.75C860.431 1091.42 868.158 1088 867.527 1081.75L823.131 641.307C822.473 634.788 830.775 631.496 834.764 636.693L1070.17 943.41C1073.95 948.336 1081.83 945.671 1081.84 939.462L1082.75 488.613" stroke="#6552D0" stroke-width="201.675" stroke-linejoin="round"/>
<circle cx="792.099" cy="899.827" r="428.056" transform="rotate(-16.9411 792.099 899.827)" stroke="#D9EE61" stroke-width="25.5544"/>
<path d="M629.949 1214.82L600.548 1195.1L584.119 1094.01C582.977 1086.83 581.515 1081.15 579.731 1076.98C578.054 1072.64 576.163 1069.31 574.058 1066.99C571.9 1064.39 569.715 1062.35 567.502 1060.87C562.128 1057.27 556.72 1056.27 551.278 1057.9C545.942 1059.36 540.889 1063.65 536.119 1070.76C532.09 1076.77 529.67 1083.28 528.859 1090.3C528.048 1097.32 529.217 1104.29 532.365 1111.21L489.546 1133.03C483.248 1119.87 480.86 1105.32 482.382 1089.38C483.904 1073.44 490.124 1057.33 501.043 1041.05C509.63 1028.25 519.212 1018.4 529.789 1011.51C540.366 1004.63 551.25 1001.04 562.442 1000.76C573.74 1000.31 584.526 1003.54 594.801 1010.43C600.176 1014.03 605.073 1018.35 609.493 1023.37C613.756 1028.3 617.512 1034.82 620.763 1042.96C623.961 1050.84 626.545 1061.16 628.516 1073.95L640.966 1153.8L619.12 1150.49L679.388 1060.62L716.615 1085.59L629.949 1214.82Z" fill="#D9EE61"/>
<path d="M781.213 1043.54C766.669 1052.59 751.579 1057.16 735.943 1057.25C720.469 1057.24 705.427 1052.71 690.818 1043.64C676.209 1034.57 663.073 1020.66 651.408 1001.92C639.744 983.173 633.071 965.244 631.39 948.132C629.709 931.021 632.282 915.521 639.109 901.634C646.097 887.646 656.863 876.128 671.407 867.078C685.789 858.128 700.717 853.659 716.192 853.669C731.828 853.579 746.95 858.068 761.559 867.135C776.168 876.203 789.305 890.109 800.969 908.855C812.633 927.601 819.306 945.529 820.987 962.641C822.668 979.753 820.014 995.303 813.026 1009.29C806.2 1023.18 795.595 1034.6 781.213 1043.54ZM756.778 1004.28C761.949 1001.06 765.468 996.627 767.336 990.982C769.365 985.236 769.298 978.104 767.136 969.585C764.873 960.906 760.072 950.667 752.731 938.871C745.29 926.912 738.226 918.082 731.54 912.379C724.853 906.676 718.484 903.466 712.433 902.748C706.543 901.929 701.013 903.129 695.842 906.347C690.67 909.564 687.07 914.046 685.041 919.792C683.174 925.437 683.241 932.569 685.241 941.188C687.403 949.706 692.205 959.945 699.646 971.903C706.986 983.7 714.05 992.53 720.838 998.394C727.686 1004 734.055 1007.21 739.945 1008.03C745.996 1008.74 751.607 1007.49 756.778 1004.28Z" fill="#D9EE61"/>
<path d="M866.193 962.287L846.938 932.58L871.664 833.2C873.444 826.149 874.337 820.354 874.343 815.813C874.509 811.17 874.083 807.363 873.066 804.394C872.104 801.161 870.899 798.426 869.45 796.19C865.93 790.76 861.35 787.718 855.71 787.064C850.229 786.307 843.895 788.258 836.708 792.916C830.639 796.85 825.849 801.882 822.338 808.014C818.827 814.145 817.154 821.013 817.32 828.617L769.369 831.798C768.766 817.22 772.304 802.906 779.982 788.857C787.66 774.807 799.725 762.452 816.176 751.789C829.113 743.404 841.798 738.13 854.233 735.968C866.667 733.806 878.084 734.799 888.483 738.945C899.042 742.989 907.686 750.201 914.415 760.583C917.934 766.013 920.735 771.909 922.817 778.271C924.796 784.474 925.676 791.955 925.457 800.716C925.294 809.213 923.601 819.724 920.377 832.247L900.359 910.543L881.584 898.897L972.383 840.046L996.762 877.66L866.193 962.287Z" fill="#D9EE61"/>
<path d="M1099.95 852.978C1082.66 859.978 1066.19 862.644 1050.52 860.978C1035.03 859.24 1020.92 853.043 1008.19 842.387C995.634 831.659 985.321 816.328 977.25 796.392C968.536 774.868 965.29 754.93 967.511 736.578C969.836 717.977 976.714 701.743 988.143 687.876C999.748 673.938 1015.25 663.04 1034.66 655.183C1045.07 650.97 1055.54 648.169 1066.06 646.782C1076.7 645.147 1086.22 645.09 1094.64 646.61L1090.8 691.901C1084.01 690.339 1077.45 690.119 1071.13 691.241C1064.91 692.115 1058.8 693.767 1052.8 696.195C1038.51 701.98 1028.8 710.945 1023.65 723.09C1018.68 735.163 1019.56 749.491 1026.27 766.075C1027.48 769.074 1028.77 772.249 1030.13 775.601C1031.59 778.705 1033.26 781.826 1035.15 784.964L1017.52 779.471C1018.41 771.515 1020.43 764.332 1023.58 757.921C1026.91 751.44 1031.56 745.659 1037.51 740.58C1043.64 735.43 1051.02 731.105 1059.67 727.605C1071.31 722.891 1082.9 721.075 1094.42 722.158C1106.05 722.993 1116.57 726.643 1125.96 733.107C1135.28 739.395 1142.34 748.449 1147.12 760.269C1152.33 773.148 1153.61 785.672 1150.94 797.841C1148.19 809.834 1142.42 820.691 1133.63 830.412C1124.76 839.957 1113.54 847.479 1099.95 852.978ZM1081.67 816.951C1086.61 814.951 1090.54 812.231 1093.46 808.79C1096.55 805.278 1098.45 801.33 1099.14 796.944C1099.82 792.559 1099.2 787.984 1097.28 783.221C1094.42 776.164 1089.75 771.483 1083.27 769.177C1076.97 766.8 1070.03 767.147 1062.44 770.218C1057.33 772.289 1053.22 775.081 1050.13 778.593C1047.21 782.033 1045.31 785.982 1044.45 790.439C1043.76 794.825 1044.38 799.399 1046.31 804.162C1048.17 808.749 1050.87 812.379 1054.41 815.05C1057.89 817.545 1061.99 819.065 1066.73 819.611C1071.4 819.98 1076.38 819.094 1081.67 816.951Z" fill="#D9EE61"/>
</svg>
