<svg width="825" height="2019" viewBox="0 0 825 2019" fill="none" xmlns="http://www.w3.org/2000/svg">
<path d="M513.949 641.586C468.411 655.457 423.992 661.193 380.692 658.794C337.774 655.679 297.955 645.025 261.236 626.832C225.066 608.471 193.51 583.609 166.569 552.244C139.461 520.331 119.221 482.428 105.851 438.536C92.4814 394.644 88.2367 352.169 93.1174 311.111C97.831 269.505 110.084 230.998 129.876 195.591C150.217 160.016 177.417 129.247 211.478 103.283C245.92 76.6037 285.91 56.3283 331.448 42.4569C384.668 26.2457 434.967 21.1165 482.347 27.0692C530.276 32.8548 573.578 49.0427 612.256 75.6331L537.139 201.039C511.8 184.776 486.128 174.309 460.123 169.639C434.668 164.803 408.223 166.562 380.791 174.919C357.199 182.105 336.697 192.547 319.285 206.245C301.873 219.942 288.291 236.371 278.538 255.529C269.167 273.973 263.459 294.598 261.413 317.405C259.915 340.045 262.927 363.709 270.447 388.399C277.968 413.088 288.661 434.413 302.525 452.373C316.939 470.167 333.26 484.381 351.489 495.016C370.099 504.936 390.45 510.728 412.541 512.393C434.632 514.058 457.474 511.297 481.066 504.11C508.499 495.754 531.433 482.473 549.87 464.266C568.855 445.892 584.332 422.891 596.301 395.263L728.575 457.496C711.122 500.584 684.198 538.164 647.801 570.236C611.786 601.591 567.168 625.375 513.949 641.586Z" fill="#0E0E0E"/>
<path d="M344.951 648.605C377.467 632.847 410.138 625.3 442.964 625.963C475.539 626.11 505.939 636.234 534.164 656.335C562.904 676.186 587.78 707.789 608.79 751.143L725.098 991.143L578.001 1062.43L473.324 846.429C458.817 816.494 442.118 797.818 423.228 790.401C404.604 782.219 384.453 783.38 362.775 793.885C347.291 801.389 334.849 811.88 325.447 825.359C315.796 838.322 310.859 853.78 310.636 871.733C310.414 889.687 315.931 910.276 327.186 933.502L425.485 1136.34L278.389 1207.63L0 633.175L147.097 561.89L279.913 835.954L228.965 817.623C230.208 779.418 241.138 746.078 261.755 717.604C282.122 688.613 309.854 665.614 344.951 648.605Z" fill="#6552D0"/>
<path d="M316.327 1497.52L553.339 1095.96L694.108 1179.05L457.095 1580.61L316.327 1497.52ZM649.961 1093.05C624.277 1077.89 607.759 1058.49 600.408 1034.83C593.057 1011.18 595.649 988.734 608.185 967.495C620.72 946.256 639.118 933.14 663.378 928.145C687.638 923.15 712.61 928.232 738.294 943.391C763.978 958.551 780.642 977.71 788.284 1000.87C796.219 1023.53 793.918 1045.49 781.382 1066.72C768.264 1088.95 749.429 1102.81 724.877 1108.3C701.111 1113.58 676.139 1108.5 649.961 1093.05Z" fill="#0E0E0E"/>
<path d="M340.038 1896.17L286.344 1708.36L413.207 1475.4L598.104 1418.11L461.195 1688.4L401.346 1777.2L340.038 1896.17ZM235.663 2018.58L46.7212 1408.83L202.857 1360.45L391.798 1970.2L235.663 2018.58ZM562.726 1917.23L373.348 1788.58L433.139 1638.55L751.732 1858.67L562.726 1917.23Z" fill="#6552D0"/>
</svg>
