<svg width="1457" height="1535" viewBox="0 0 1457 1535" fill="none" xmlns="http://www.w3.org/2000/svg">
<ellipse cx="124.449" cy="125.258" rx="124.449" ry="125.258" transform="matrix(-0.877178 0.480166 0.471448 0.881894 1234.42 135.579)" fill="#0E0E0E"/>
<ellipse cx="124.449" cy="125.258" rx="124.449" ry="125.258" transform="matrix(-0.877178 0.480166 0.471448 0.881894 218.328 860.582)" fill="#0E0E0E"/>
<ellipse cx="124.449" cy="125.258" rx="124.449" ry="125.258" transform="matrix(-0.877178 0.480166 0.471448 0.881894 1338.42 548.58)" fill="#0E0E0E"/>
<ellipse cx="124.449" cy="125.258" rx="124.449" ry="125.258" transform="matrix(-0.877178 0.480166 0.471448 0.881894 423.422 1176.61)" fill="#6552D0"/>
<ellipse cx="124.449" cy="125.258" rx="124.449" ry="125.258" transform="matrix(-0.462831 0.886447 -0.890991 -0.454022 710.618 853.209)" fill="#0E0E0E"/>
<ellipse cx="124.449" cy="125.258" rx="124.449" ry="125.258" transform="matrix(-0.462831 0.886447 -0.890991 -0.454022 839.791 251.661)" fill="#0E0E0E"/>
<ellipse cx="124.449" cy="125.258" rx="124.449" ry="125.258" transform="matrix(-0.462831 0.886447 -0.890991 -0.454022 945.792 1231.69)" fill="#0E0E0E"/>
<ellipse cx="124.449" cy="125.258" rx="124.449" ry="125.258" transform="matrix(-0.462831 0.886447 -0.890991 -0.454022 436.791 508.665)" fill="#6552D0"/>
<ellipse cx="124.449" cy="125.258" rx="124.449" ry="125.258" transform="matrix(-0.462831 0.886447 -0.890991 -0.454022 1016.5 594.324)" fill="#6552D0"/>
<ellipse cx="124.449" cy="125.258" rx="124.449" ry="125.258" transform="matrix(-0.462831 0.886447 -0.890991 -0.454022 384.789 130.318)" fill="#6552D0"/>
<ellipse cx="124.449" cy="125.258" rx="124.449" ry="125.258" transform="matrix(-0.877178 0.480166 0.471448 0.881894 1276.42 1193.61)" fill="#6552D0"/>
<ellipse cx="124.449" cy="125.258" rx="124.449" ry="125.258" transform="matrix(-0.877178 0.480166 0.471448 0.881894 1119.42 852.58)" fill="#6552D0"/>
</svg>
