<svg width="1457" height="1535" viewBox="0 0 1457 1535" fill="none" xmlns="http://www.w3.org/2000/svg">
<ellipse cx="124.449" cy="125.258" rx="124.449" ry="125.258" transform="matrix(-0.877178 0.480166 0.471448 0.881894 1234.42 135.575)" fill="#6552D0"/>
<ellipse cx="124.449" cy="125.258" rx="124.449" ry="125.258" transform="matrix(-0.877178 0.480166 0.471448 0.881894 218.327 860.582)" fill="#6552D0"/>
<ellipse cx="124.449" cy="125.258" rx="124.449" ry="125.258" transform="matrix(-0.877178 0.480166 0.471448 0.881894 1338.42 548.581)" fill="#6552D0"/>
<ellipse cx="124.449" cy="125.258" rx="124.449" ry="125.258" transform="matrix(-0.877178 0.480166 0.471448 0.881894 423.421 1176.6)" fill="#0E0E0E"/>
<ellipse cx="124.449" cy="125.258" rx="124.449" ry="125.258" transform="matrix(-0.462831 0.886447 -0.890991 -0.454022 710.616 853.2)" fill="#6552D0"/>
<ellipse cx="124.449" cy="125.258" rx="124.449" ry="125.258" transform="matrix(-0.462831 0.886447 -0.890991 -0.454022 839.791 251.656)" fill="#6552D0"/>
<ellipse cx="124.449" cy="125.258" rx="124.449" ry="125.258" transform="matrix(-0.462831 0.886447 -0.890991 -0.454022 945.791 1231.68)" fill="#6552D0"/>
<ellipse cx="124.449" cy="125.258" rx="124.449" ry="125.258" transform="matrix(-0.462831 0.886447 -0.890991 -0.454022 436.791 508.666)" fill="#0E0E0E"/>
<ellipse cx="124.449" cy="125.258" rx="124.449" ry="125.258" transform="matrix(-0.462831 0.886447 -0.890991 -0.454022 1016.5 594.324)" fill="#0E0E0E"/>
<ellipse cx="124.449" cy="125.258" rx="124.449" ry="125.258" transform="matrix(-0.462831 0.886447 -0.890991 -0.454022 384.788 130.319)" fill="#0E0E0E"/>
<ellipse cx="124.449" cy="125.258" rx="124.449" ry="125.258" transform="matrix(-0.877178 0.480166 0.471448 0.881894 1276.42 1193.6)" fill="#0E0E0E"/>
<ellipse cx="124.449" cy="125.258" rx="124.449" ry="125.258" transform="matrix(-0.877178 0.480166 0.471448 0.881894 1119.42 852.581)" fill="#0E0E0E"/>
</svg>
