<svg width="1540" height="1362" viewBox="0 0 1540 1362" fill="none" xmlns="http://www.w3.org/2000/svg">
<path d="M1269.65 221.409L986.412 309.458C977.617 312.193 968.151 308.035 964.213 299.71L863.176 86.0891C857.292 73.6498 840.366 71.7691 831.896 82.6136L654.744 309.413C648.595 317.286 637.303 318.849 629.246 312.943L381.575 131.39C368.439 121.761 350.172 132.595 352.322 148.74L384.265 388.62C385.39 397.07 380.592 405.193 372.65 408.287L87.2788 519.431C70.7023 525.887 71.9178 549.738 89.0649 554.476L173.203 577.721L461.871 639.245C476.18 642.295 481.444 659.97 471.135 670.351L130.218 1013.68C116.953 1027.04 129.812 1049.36 148.022 1044.59L735.526 890.61C745.981 887.869 756.547 894.644 758.42 905.289L822.777 1271.09C825.879 1288.72 849.723 1292.09 857.59 1276.01L1065.9 850.19C1071.4 838.937 1086.27 836.302 1095.31 844.978L1288.75 1030.7C1303.36 1044.72 1326.63 1028.44 1318.47 1009.91L1192.59 724.366C1188.29 714.606 1193.12 703.241 1203.13 699.559L1451.94 608.029C1470.71 601.124 1466.67 573.48 1446.71 572.229L1127.26 552.204C1113.15 551.32 1105.21 535.574 1112.89 523.708L1290.65 249.107C1300.05 234.594 1286.16 216.276 1269.65 221.409Z" fill="#D9EE61" stroke="#D9EE61" stroke-width="150.993"/>
</svg>
